<svg width="46" height="53" viewBox="0 0 46 53" fill="none" xmlns="http://www.w3.org/2000/svg">
<path d="M42.325 30.0732L40.2486 27.314C40.2486 27.314 41.5041 23.8186 41.8361 22.9208L27.5064 3.84576L30.5667 14.4217L20.1121 0.5L23.5889 12.5244C17.1363 11.0101 10.1344 13.1708 5.72203 18.5097L6.02384 18.9107C7.9071 18.1386 9.89902 17.9411 11.9453 18.36C2.25127 22.041 -2.03437 32.9641 2.02793 42.0138H2.541C2.81263 39.5359 3.72408 37.8241 5.50473 36.4355C6.27735 45.0543 13.3939 52.2785 22.9913 52.5V51.3568C9.51874 46.8439 9.63343 31.8448 17.6796 27.6791C14.9935 31.4678 15.2953 35.1906 17.1605 38.9374L14.6374 39.8172L14.9875 40.6971C14.9875 40.6971 19.762 40.4936 21.096 40.3978C21.8686 40.9784 22.768 42.6123 23.0336 43.1151L19.43 45.3835L19.9914 46.1257C19.9914 46.1257 25.611 44.6773 27.0959 44.2224C29.2206 45.982 30.9107 48.1367 32.637 50.7523C34.0012 49.9622 35.2567 49.0046 36.3734 47.9033C33.8744 44.1087 30.959 41.7864 27.6512 40.2063L26.4017 40.9963C25.2971 39.5 24.0114 38.1773 22.593 37.052L20.9934 37.6087C17.2329 33.1377 19.7801 26.7155 23.4622 27.1404C23.4742 27.1404 23.4863 27.1464 23.5044 27.1524V27.1644C23.6191 28.6487 22.3998 29.2413 21.1926 30.1091L21.8566 30.989C23.0698 30.9411 24.3978 31.0189 25.6352 31.2403L23.3052 32.9162L23.9511 33.7721C30.0415 32.5032 36.5364 35.6754 38.9267 41.8702L39.9588 42.3729L41.0152 39.7454L43.5986 38.1713L45.5 31.6054L42.325 30.0732ZM38.4438 28.1878L34.4358 26.2366C33.5847 25.8237 33.0898 24.9199 33.1984 23.9802L33.5062 21.4185L38.5223 28.0981C38.486 28.14 38.4619 28.1639 38.4438 28.1878Z" fill="black"/>
</svg>
