<svg width="44" height="52" viewBox="0 0 44 52" fill="none" xmlns="http://www.w3.org/2000/svg">
<path d="M33.5356 33.0827L28.2378 23.6488L36.4843 0.115234C41.2525 1.403 45.9117 11.126 41.576 19.3012C39.4934 23.226 33.5356 33.0827 33.5356 33.0827Z" fill="black"/>
<path d="M37.1186 30.5978L39.4212 29.0749L40.8427 25.2914H41.8706L41.3572 30.2699L35.0866 33.9995L37.1186 30.5978Z" fill="black"/>
<path d="M4.57816 29.0749L6.88083 30.5978L8.91278 33.9995L2.64435 30.2699L2.12881 25.2914H3.15881L4.57816 29.0749Z" fill="black"/>
<path d="M29.3272 39.3824L22.0018 51.8848L14.7541 39.4008L22.0018 40.544L29.3272 39.3824Z" fill="black"/>
<path d="M17.6133 23.9551L21.9997 17.1474L26.3861 23.9551L21.9997 30.6744L17.6133 23.9551Z" fill="#FAE100"/>
<path d="M11.7073 34.5247L16.6297 25.8167L21.9997 33.8862L27.3697 25.8167L32.2911 34.5247L35.9257 36.8716L36.4413 44.7837H35.4102L33.9919 38.0666L32.0473 37.2653L21.9997 38.649L11.9521 37.2653L10.0075 38.0666L8.58815 44.7837H7.55815L8.07369 36.8716L11.7073 34.5247Z" fill="#FAE100"/>
<path d="M2.42538 19.3012C-1.91248 11.126 2.74678 1.403 7.51389 0.115234L15.756 23.6488L10.4658 33.0827C10.4658 33.0827 4.50587 23.226 2.42538 19.3012Z" fill="black"/>
</svg>
